<svg xmlns="http://www.w3.org/2000/svg" width="56" height="56" viewBox="0 0 56 56">
    <g fill="#000056" fill-rule="evenodd">
        <path d="M28 55.5C12.812 55.5.5 43.188.5 28S12.812.5 28 .5 55.5 12.812 55.5 28 43.188 55.5 28 55.5zm0-1c14.636 0 26.5-11.864 26.5-26.5S42.636 1.5 28 1.5 1.5 13.364 1.5 28 13.364 54.5 28 54.5z"/>
        <path d="M33.602 18.95a.5.5 0 0 1 .424.235l2.948 4.717a.5.5 0 0 1 .076.265V36.55a.5.5 0 0 1-.5.5h-17.1a.5.5 0 0 1-.5-.5V24.167a.5.5 0 0 1 .076-.265l2.949-4.717a.5.5 0 0 1 .423-.235h11.204zm-.277 1h-10.65l-2.725 4.36v11.74h16.1V24.31l-2.725-4.36z"/>
        <path d="M21.974 19.185a.5.5 0 0 1 .424-.235h11.204a.5.5 0 0 1 .423.235l2.949 4.717a.5.5 0 0 1-.424.765h-17.1a.5.5 0 0 1-.424-.765l2.948-4.717zm.701.765l-2.323 3.717h15.296l-2.324-3.717H22.675zM25.3 33a.5.5 0 0 1-.5-.5V28a.5.5 0 0 1 .5-.5h5.4a.5.5 0 0 1 .5.5v4.5a.5.5 0 0 1-.5.5h-5.4zm.5-1h4.4v-3.5h-4.4V32z"/>
        <path d="M26.2 24.5a.5.5 0 0 1-.5-.5v-4.1a.5.5 0 0 1 .5-.5h3.6a.5.5 0 0 1 .5.5V24a.5.5 0 0 1-.5.5h-3.6zm3.1-1v-3.1h-2.6v3.1h2.6z"/>
    </g>
</svg>
